<svg width="677" height="1000" viewBox="0 0 900 1330" xmlns="http://www.w3.org/2000/svg">
  <defs>
    <marker id="arrow" viewBox="0 0 10 10" refX="8" refY="5" markerWidth="7" markerHeight="7" orient="auto-start-reverse">
      <path d="M0,0 L10,5 L0,10 z" fill="#93a1a1"/>
    </marker>
    <marker id="arrowAmber" viewBox="0 0 10 10" refX="8" refY="5" markerWidth="7" markerHeight="7" orient="auto-start-reverse">
      <path d="M0,0 L10,5 L0,10 z" fill="#b58900"/>
    </marker>
  </defs>

  <!-- output probabilities -->
  <rect x="250" y="15" width="340" height="105" rx="8" fill="#0d4a55" stroke="#b58900" stroke-width="2"/>
  <text x="420" y="39" text-anchor="middle" font-size="17" fill="#eee8d5">Next-token probabilities</text>
  <rect x="342" y="99" width="12" height="13" fill="#93a1a1"/>
  <rect x="362" y="86" width="12" height="26" fill="#93a1a1"/>
  <rect x="382" y="68" width="12" height="44" fill="#b58900"/>
  <rect x="402" y="90" width="12" height="22" fill="#93a1a1"/>
  <rect x="422" y="101" width="12" height="11" fill="#93a1a1"/>
  <rect x="442" y="95" width="12" height="17" fill="#93a1a1"/>

  <line x1="420" y1="148" x2="420" y2="120" stroke="#93a1a1" stroke-width="2" marker-end="url(#arrow)"/>

  <!-- linear + softmax -->
  <rect x="270" y="148" width="300" height="58" rx="8" fill="#0d4a55" stroke="#268bd2" stroke-width="2"/>
  <text x="420" y="183" text-anchor="middle" font-size="17" fill="#eee8d5">Linear &#8594; Softmax</text>

  <line x1="420" y1="244" x2="420" y2="206" stroke="#93a1a1" stroke-width="2" marker-end="url(#arrow)"/>

  <!-- final norm -->
  <rect x="325" y="244" width="190" height="45" rx="8" fill="#0d4a55" stroke="#6c71c4" stroke-width="2"/>
  <text x="420" y="273" text-anchor="middle" font-size="17" fill="#eee8d5">Final Norm</text>

  <line x1="420" y1="312" x2="420" y2="289" stroke="#93a1a1" stroke-width="2" marker-end="url(#arrow)"/>

  <!-- continuation dots: Final Norm down into the faded echo -->
  <circle cx="420" cy="323" r="2.2" fill="#93a1a1"/>
  <circle cx="420" cy="335" r="2.2" fill="#93a1a1"/>
  <circle cx="420" cy="347" r="2.2" fill="#93a1a1"/>

  <!-- faded echo of the next block in the stack -->
  <rect x="190" y="376" width="450" height="55" rx="14" fill="none" stroke="#93a1a1" stroke-width="2" stroke-dasharray="8,6" opacity="0.32"/>
  <text x="420" y="399" text-anchor="middle" font-size="15" font-weight="bold" fill="#b58900">Transformer Block</text>
  <text x="420" y="418" text-anchor="middle" font-size="12" fill="#93a1a1">(&#215; N, stacked)</text>

  <line x1="420" y1="476" x2="420" y2="431" stroke="#93a1a1" stroke-width="2" marker-end="url(#arrow)"/>
  <!-- continuation dots: block boundary up into the faded echo -->
  <circle cx="420" cy="440" r="2.2" fill="#93a1a1"/>
  <circle cx="420" cy="452" r="2.2" fill="#93a1a1"/>
  <circle cx="420" cy="464" r="2.2" fill="#93a1a1"/>

  <!-- transformer block boundary -->
  <rect x="190" y="476" width="450" height="654" rx="14" fill="none" stroke="#93a1a1" stroke-width="2" stroke-dasharray="8,6"/>
  <text x="210" y="502" font-size="16" fill="#b58900" font-weight="bold">Transformer Block</text>
  <text x="210" y="522" font-size="13" fill="#93a1a1">(&#215; N, stacked)</text>

  <!-- residual connections: solid, same color/style as the flow arrows;
       both swing right and are drawn before the KV Cache connector below
       so the KV Cache's amber line renders on top where they cross -->
  <path d="M420,1114 L580,1114 L580,814 L435,814" fill="none" stroke="#93a1a1" stroke-width="2" marker-end="url(#arrow)"/>
  <text x="580" y="964" font-size="12" fill="#93a1a1" transform="rotate(-90 580 964)" text-anchor="middle">residual</text>

  <path d="M420,799 L580,799 L580,531 L435,531" fill="none" stroke="#93a1a1" stroke-width="2" marker-end="url(#arrow)"/>
  <text x="580" y="665" font-size="12" fill="#93a1a1" transform="rotate(-90 580 665)" text-anchor="middle">residual</text>

  <!-- residual add 2 -->
  <circle cx="420" cy="531" r="15" fill="#0d4a55" stroke="#93a1a1" stroke-width="2"/>
  <text x="420" y="537" text-anchor="middle" font-size="18" fill="#eee8d5">+</text>

  <line x1="420" y1="582" x2="420" y2="546" stroke="#93a1a1" stroke-width="2" marker-end="url(#arrow)"/>

  <!-- feed-forward -->
  <rect x="290" y="582" width="260" height="100" rx="8" fill="#0d4a55" stroke="#859900" stroke-width="2"/>
  <text x="420" y="608" text-anchor="middle" font-size="16" fill="#eee8d5">Feed-Forward Network</text>
  <text x="420" y="630" text-anchor="middle" font-size="13" fill="#93a1a1">expand &#8594; activate &#8594; project</text>
  <rect x="380" y="648" width="14" height="16" fill="#859900" opacity="0.6"/>
  <rect x="400" y="642" width="14" height="28" fill="#859900"/>
  <rect x="420" y="648" width="14" height="16" fill="#859900" opacity="0.6"/>

  <line x1="420" y1="718" x2="420" y2="682" stroke="#93a1a1" stroke-width="2" marker-end="url(#arrow)"/>

  <!-- norm 2 -->
  <rect x="330" y="718" width="180" height="45" rx="8" fill="#0d4a55" stroke="#6c71c4" stroke-width="2"/>
  <text x="420" y="747" text-anchor="middle" font-size="17" fill="#eee8d5">Norm</text>

  <line x1="420" y1="799" x2="420" y2="763" stroke="#93a1a1" stroke-width="2" marker-end="url(#arrow)"/>

  <!-- residual add 1 -->
  <circle cx="420" cy="814" r="15" fill="#0d4a55" stroke="#93a1a1" stroke-width="2"/>
  <text x="420" y="820" text-anchor="middle" font-size="18" fill="#eee8d5">+</text>

  <line x1="420" y1="865" x2="420" y2="829" stroke="#93a1a1" stroke-width="2" marker-end="url(#arrow)"/>

  <!-- masked multi-head self-attention -->
  <rect x="275" y="865" width="290" height="140" rx="8" fill="#0d4a55" stroke="#2aa198" stroke-width="2"/>
  <text x="420" y="891" text-anchor="middle" font-size="16" fill="#eee8d5">Masked Multi-Head</text>
  <text x="420" y="913" text-anchor="middle" font-size="16" fill="#eee8d5">Self-Attention</text>
  <rect x="310" y="930" width="16" height="60" fill="#2aa198" opacity="0.9"/>
  <rect x="378" y="930" width="16" height="60" fill="#2aa198" opacity="0.7"/>
  <rect x="446" y="930" width="16" height="60" fill="#2aa198" opacity="0.5"/>
  <rect x="514" y="930" width="16" height="60" fill="#2aa198" opacity="0.3"/>
  <text x="420" y="1003" text-anchor="middle" font-size="13" fill="#93a1a1">attention heads (illustrative)</text>

  <!-- KV cache, outside the block boundary -->
  <line x1="565" y1="935" x2="668" y2="935" stroke="#b58900" stroke-width="2" marker-start="url(#arrowAmber)" marker-end="url(#arrowAmber)"/>
  <rect x="670" y="885" width="175" height="100" rx="8" fill="#0d4a55" stroke="#b58900" stroke-width="2"/>
  <text x="757" y="911" text-anchor="middle" font-size="16" fill="#eee8d5">KV Cache</text>
  <text x="757" y="933" text-anchor="middle" font-size="13" fill="#93a1a1">cached keys/values</text>
  <text x="757" y="951" text-anchor="middle" font-size="13" fill="#93a1a1">from prior tokens</text>

  <line x1="420" y1="1041" x2="420" y2="1005" stroke="#93a1a1" stroke-width="2" marker-end="url(#arrow)"/>

  <!-- norm 1 -->
  <rect x="330" y="1041" width="180" height="45" rx="8" fill="#0d4a55" stroke="#6c71c4" stroke-width="2"/>
  <text x="420" y="1070" text-anchor="middle" font-size="17" fill="#eee8d5">Norm</text>

  <line x1="420" y1="1110" x2="420" y2="1086" stroke="#93a1a1" stroke-width="2" marker-end="url(#arrow)"/>

  <!-- branch point (into norm1 / residual bypass) -->
  <circle cx="420" cy="1114" r="4" fill="#eee8d5"/>

  <line x1="420" y1="1170" x2="420" y2="1118" stroke="#93a1a1" stroke-width="2" marker-end="url(#arrow)"/>

  <!-- embedding + positional -->
  <rect x="270" y="1170" width="300" height="60" rx="8" fill="#0d4a55" stroke="#268bd2" stroke-width="2"/>
  <text x="420" y="1194" text-anchor="middle" font-size="17" fill="#eee8d5">Token Embedding +</text>
  <text x="420" y="1217" text-anchor="middle" font-size="17" fill="#eee8d5">Positional Encoding</text>

  <line x1="420" y1="1266" x2="420" y2="1230" stroke="#93a1a1" stroke-width="2" marker-end="url(#arrow)"/>

  <!-- input tokens -->
  <rect x="372" y="1266" width="16" height="16" fill="#2aa198"/>
  <rect x="392" y="1266" width="16" height="16" fill="#93a1a1"/>
  <rect x="412" y="1266" width="16" height="16" fill="#93a1a1"/>
  <rect x="432" y="1266" width="16" height="16" fill="#2aa198"/>
  <rect x="452" y="1266" width="16" height="16" fill="#93a1a1"/>
  <text x="420" y="1308" text-anchor="middle" font-size="15" fill="#93a1a1">prompt tokens</text>
</svg>
