<svg width="1300" height="830" viewBox="0 0 1300 830">
  <defs>
    <pattern id="unreliable-hatch" width="9" height="9" patternTransform="rotate(45)" patternUnits="userSpaceOnUse">
      <line x1="0" y1="0" x2="0" y2="9" stroke="#586e75" stroke-width="2" opacity="0.5"/>
    </pattern>
  </defs>

  <text x="650" y="34" text-anchor="middle" font-size="30" font-weight="600" fill="#eee8d5">AI Task-Completion Time Horizon</text>
  <text x="650" y="57" text-anchor="middle" font-size="16" fill="#93a1a1">26 real measurements, a fitted trend, and illustrative futures out to 2030 &mdash; log scale</text>

  <!-- very light "future" shading -- everything right of "today" -->
  <rect x="910.5" y="100" width="339.5" height="520" fill="#eee8d5" opacity="0.05"/>
  <text x="1080" y="95" text-anchor="middle" font-size="14" fill="#93a1a1" opacity="0.8">Future</text>

  <!-- 16hr unreliable-measurement zone -->
  <rect x="150" y="100" width="1100" height="215.8" fill="url(#unreliable-hatch)" opacity="0.7"/>
  <line x1="150" y1="315.8" x2="1250" y2="315.8" stroke="#586e75" stroke-width="1.5" stroke-dasharray="4,4"/>
  <text x="700" y="116" text-anchor="middle" font-size="15" font-style="italic" fill="#93a1a1">Measurements above 16 hrs are unreliable with METR's current task suite</text>

  <!-- y gridlines -->
  <g font-size="15" fill="#93a1a1">
    <line x1="150" y1="582.8" x2="1250" y2="582.8" stroke="#586e75" stroke-width="1" stroke-dasharray="3,5" stroke-opacity="0.3"/>
    <text x="140" y="587.8" text-anchor="end">10 sec</text>
    <line x1="150" y1="527.6" x2="1250" y2="527.6" stroke="#586e75" stroke-width="1" stroke-dasharray="3,5" stroke-opacity="0.3"/>
    <text x="140" y="532.6" text-anchor="end">1 min</text>
    <line x1="150" y1="456.6" x2="1250" y2="456.6" stroke="#586e75" stroke-width="1" stroke-dasharray="3,5" stroke-opacity="0.3"/>
    <text x="140" y="461.6" text-anchor="end">10 min</text>
    <line x1="150" y1="401.3" x2="1250" y2="401.3" stroke="#586e75" stroke-width="1" stroke-dasharray="3,5" stroke-opacity="0.3"/>
    <text x="140" y="406.3" text-anchor="end">1 hr</text>
    <line x1="150" y1="303.3" x2="1250" y2="303.3" stroke="#586e75" stroke-width="1" stroke-dasharray="3,5" stroke-opacity="0.3"/>
    <text x="140" y="308.3" text-anchor="end">1 day</text>
    <line x1="150" y1="243.3" x2="1250" y2="243.3" stroke="#586e75" stroke-width="1" stroke-dasharray="3,5" stroke-opacity="0.3"/>
    <text x="140" y="248.3" text-anchor="end">1 week</text>
    <line x1="150" y1="198.4" x2="1250" y2="198.4" stroke="#586e75" stroke-width="1" stroke-dasharray="3,5" stroke-opacity="0.3"/>
    <text x="140" y="203.4" text-anchor="end">1 month</text>
    <line x1="150" y1="121.3" x2="1250" y2="121.3" stroke="#586e75" stroke-width="1" stroke-dasharray="3,5" stroke-opacity="0.3"/>
    <text x="140" y="126.3" text-anchor="end">1 year</text>
  </g>

  <!-- x axis + year ticks (2019-2030) -->
  <line x1="150" y1="620" x2="1250" y2="620" stroke="#586e75" stroke-width="1.5"/>
  <g font-size="13" fill="#93a1a1" text-anchor="middle">
    <text x="150" y="642">2019</text>
    <text x="249.9" y="642">2020</text>
    <text x="350.1" y="642">2021</text>
    <text x="450.0" y="642">2022</text>
    <text x="550.0" y="642">2023</text>
    <text x="649.9" y="642">2024</text>
    <text x="750.1" y="642">2025</text>
    <text x="850.0" y="642">2026</text>
    <text x="950.0" y="642">2027</text>
    <text x="1049.9" y="642">2028</text>
    <text x="1150.1" y="642">2029</text>
    <text x="1250.0" y="642">2030</text>
  </g>

  <!-- fitted trend line (OLS regression on all 26 real points, log2(minutes) vs date). Doubling time ~178 days, close to METR's own reported ~188-day all-time figure. -->
  <polyline points="162.0,663.3 216.3,639.5 270.7,615.7 325.2,591.8 379.4,568.1 433.9,544.2 488.4,520.4 542.6,496.6 597.1,472.8 651.5,448.9 706.0,425.0 760.2,401.3 814.7,377.4 869.2,353.6 923.4,329.8 977.9,306.0 1032.4,282.1 1086.6,258.4 1141.0,234.5 1195.5,210.6 1250.0,186.8"
            fill="none" stroke="#2aa198" stroke-width="2.5" stroke-dasharray="9,6" opacity="0.9"/>

  <!-- "today" reference line -- every forward-looking line below shares this one anchor point (where it meets the fitted trend) -->
  <line x1="910.5" y1="90" x2="910.5" y2="620" stroke="#eee8d5" stroke-width="1.5" stroke-dasharray="5,4" opacity="0.6"/>
  <text x="910.5" y="82" text-anchor="middle" font-size="14" font-weight="600" fill="#eee8d5">Today</text>
  <circle cx="910.5" cy="335.5" r="5" fill="#eee8d5"/>

  <!-- faded alternative futures, all sharing the "today" anchor -->
  <g fill="none" stroke-width="2.5" opacity="0.55">
    <!-- fits and starts: a monotonic staircase (rise, plateau, rise, plateau...) -- this is the FRONTIER, which by definition never regresses -->
    <polyline stroke="#eee8d5" stroke-dasharray="2,3" points="910.5,335.5 913.3,333.2 916.0,331.0 918.7,328.7 921.5,326.5 924.2,324.2 927.0,322.0 929.7,322.0 932.4,322.0 935.2,322.0 937.9,322.0 940.6,322.0 943.4,322.0 946.1,322.0 948.9,322.0 951.6,322.0 954.6,319.4 957.6,316.9 960.6,314.4 963.9,311.8 966.7,311.8 969.4,311.8 972.1,311.8 974.9,311.8 977.6,311.8 980.3,311.8 983.1,311.8 985.8,311.8 988.6,311.8 991.3,311.8 994.0,311.8 996.8,311.8 999.5,311.8 1002.2,309.6 1005.0,307.3 1007.7,305.1 1010.5,302.8 1013.2,300.6 1015.9,298.3 1018.7,296.1 1021.4,296.1 1024.1,296.1 1026.9,296.1 1029.6,296.1 1032.4,296.1 1035.1,296.1 1037.8,296.1 1040.6,296.1 1043.3,296.1 1046.0,296.1 1049.1,293.6 1052.1,291.1 1055.1,288.7 1058.1,286.2 1061.1,283.7 1063.8,283.7 1066.6,283.7 1069.3,283.7 1072.1,283.7 1074.8,283.7 1077.5,283.7 1080.3,283.7 1083.0,283.7 1085.7,283.7 1088.5,283.7 1091.2,283.7 1094.0,283.7 1096.7,283.7 1099.4,283.7 1102.2,281.5 1104.9,279.2 1107.6,277.0 1110.4,274.7 1113.1,272.5 1115.9,270.2 1118.6,270.2 1121.3,270.2 1124.1,270.2 1126.8,270.2 1129.5,270.2 1132.3,270.2 1135.0,270.2 1137.8,270.2 1140.5,270.2 1143.2,270.2 1145.7,270.2 1148.7,270.2 1151.4,270.2 1154.2,270.2 1156.9,270.2 1159.7,268.0 1162.4,265.7 1165.1,263.5 1167.9,261.2 1170.6,259.0 1250.0,259.0"/>
    <circle cx="1170.6" cy="259.0" r="3.5" fill="#eee8d5" opacity="0.7"/>
    <text x="1210" y="248" text-anchor="middle" font-size="13" font-style="italic" fill="#eee8d5" opacity="0.85">no further progress</text>
    <polyline stroke="#268bd2" stroke-dasharray="6,4" points="910.5,335.5 921.8,323.9 933.1,316.8 944.5,311.6 955.8,307.6 967.1,304.2 978.4,301.4 989.7,298.9 1001.0,296.7 1012.4,294.7 1023.7,293.0 1035.0,291.3 1046.3,289.8 1057.6,288.4 1068.9,287.2 1080.2,285.9 1091.6,284.8 1102.9,283.7 1114.2,282.7 1125.5,281.7 1136.8,280.8 1148.2,279.9 1159.5,279.1 1170.8,278.3 1182.1,277.5 1193.4,276.8 1204.7,276.1 1216.0,275.4 1227.4,274.7 1238.7,274.1 1250.0,273.5"/>
  </g>

  <!-- accelerating / super-exponential curve -- doubling time itself shrinks, bending upward past a constant-rate line -->
  <polyline points="910.5,335.5 919.0,334.6 927.5,332.9 936.0,330.7 944.5,328.2 953.0,325.3 961.4,322.1 969.9,318.6 978.4,314.8 986.9,310.8 995.4,306.6 1003.9,302.2 1012.4,297.6 1020.9,292.7 1029.3,287.7 1037.8,282.5 1046.3,277.1 1054.8,271.5 1063.3,265.8 1071.8,259.9 1080.3,253.9 1088.8,247.7 1097.2,241.4 1105.7,234.9 1114.2,228.2 1122.7,221.5 1131.2,214.6 1139.7,207.5 1148.2,200.3 1156.6,193.0 1165.1,185.6 1173.6,178.1 1182.1,170.4 1190.6,162.6 1199.1,154.7 1207.6,146.6 1216.1,138.5 1224.5,130.2 1233.0,121.8 1241.5,113.4 1250.0,104.8"
            fill="none" stroke="#6c71c4" stroke-width="2.5" opacity="0.85"/>

  <!-- AI 2027's Agent-0..4 milestones -- reference points only, deliberately NOT connected by a trend line -->
  <circle cx="816.6" cy="357.3" r="5" fill="#b58900" opacity="0.55"/>
  <text x="816.6" y="342" text-anchor="middle" font-size="14" fill="#b58900" opacity="0.75">Agent-0</text>
  <circle cx="858.5" cy="303.3" r="5" fill="#b58900" opacity="0.55"/>
  <text x="833" y="264" text-anchor="middle" font-size="14" fill="#b58900" opacity="0.75">Agent-1</text>
  <circle cx="950.0" cy="243.3" r="6" fill="#b58900"/>
  <text x="950.0" y="228" text-anchor="middle" font-size="15" font-weight="600" fill="#b58900">Agent-2</text>
  <circle cx="966.1" cy="198.4" r="6" fill="#b58900"/>
  <text x="1000" y="198" text-anchor="middle" font-size="15" font-weight="600" fill="#b58900">Agent-3</text>
  <circle cx="1016.5" cy="142.7" r="6" fill="#b58900"/>
  <text x="1016.5" y="127" text-anchor="middle" font-size="15" font-weight="600" fill="#b58900">Agent-4</text>

  <!-- all 26 real METR measurements (no connecting line) -->
  <circle cx="162.0" cy="617.8" r="6" fill="#93a1a1"/>
  <text x="162.0" y="601" text-anchor="middle" font-size="14" font-weight="600" fill="#eee8d5">GPT-2</text>
  <circle cx="290.4" cy="587.4" r="3.5" fill="#93a1a1" opacity="0.55"/>
  <circle cx="470.0" cy="543.4" r="3.5" fill="#93a1a1" opacity="0.55"/>
  <circle cx="569.7" cy="484.9" r="6" fill="#93a1a1"/>
  <text x="569.7" y="507" text-anchor="middle" font-size="14" font-weight="600" fill="#eee8d5">GPT-4</text>
  <circle cx="634.6" cy="484.5" r="3.5" fill="#93a1a1" opacity="0.55"/>
  <circle cx="667.1" cy="485.2" r="3.5" fill="#2aa198" opacity="0.55"/>
  <circle cx="677.0" cy="487.0" r="3.5" fill="#93a1a1" opacity="0.55"/>
  <circle cx="686.3" cy="467.6" r="3.5" fill="#93a1a1" opacity="0.55"/>
  <circle cx="696.7" cy="452.6" r="3.5" fill="#2aa198" opacity="0.55"/>
  <circle cx="719.7" cy="434.7" r="3.5" fill="#93a1a1" opacity="0.55"/>
  <circle cx="730.7" cy="434.4" r="3.5" fill="#2aa198" opacity="0.55"/>

  <!-- crowded 2025-2026 cluster: leader lines to a staggered cascade of labels below -->
  <g stroke="#586e75" stroke-width="1" opacity="0.7">
    <line x1="742.7" y1="414.7" x2="720" y2="455"/>
    <line x1="764.9" y1="401.1" x2="760" y2="480"/>
    <line x1="778.8" y1="380.0" x2="795" y2="505"/>
    <line x1="809.8" y1="363.7" x2="825" y2="530"/>
    <line x1="839.6" y1="352.4" x2="860" y2="555"/>
  </g>
  <circle cx="742.7" cy="414.7" r="6" fill="#93a1a1"/>
  <text x="720" y="468" text-anchor="middle" font-size="14" fill="#eee8d5">o1</text>
  <circle cx="764.9" cy="401.1" r="6" fill="#2aa198"/>
  <text x="760" y="493" text-anchor="middle" font-size="14" fill="#eee8d5">Claude 3.7 Sonnet</text>
  <circle cx="778.8" cy="380.0" r="6" fill="#93a1a1"/>
  <text x="795" y="518" text-anchor="middle" font-size="14" fill="#eee8d5">o3</text>
  <circle cx="788.7" cy="385.5" r="3.5" fill="#2aa198" opacity="0.55"/>
  <circle cx="809.2" cy="385.4" r="3.5" fill="#2aa198" opacity="0.55"/>
  <circle cx="809.8" cy="363.7" r="6" fill="#93a1a1"/>
  <text x="825" y="543" text-anchor="middle" font-size="14" fill="#eee8d5">GPT-5</text>
  <circle cx="838.0" cy="360.7" r="3.5" fill="#268bd2" opacity="0.55"/>
  <circle cx="838.3" cy="360.7" r="3.5" fill="#93a1a1" opacity="0.55"/>
  <circle cx="839.6" cy="352.4" r="6" fill="#2aa198"/>
  <text x="860" y="568" text-anchor="middle" font-size="14" font-weight="600" fill="#eee8d5">Opus 4.5</text>
  <circle cx="844.3" cy="346.7" r="3.5" fill="#93a1a1" opacity="0.55"/>
  <circle cx="859.6" cy="324.7" r="3.5" fill="#2aa198" opacity="0.55"/>
  <circle cx="859.6" cy="347.0" r="3.5" fill="#93a1a1" opacity="0.55"/>
  <circle cx="863.4" cy="344.1" r="3.5" fill="#268bd2" opacity="0.55"/>
  <circle cx="867.3" cy="347.7" r="3.5" fill="#93a1a1" opacity="0.55"/>
  <circle cx="876.3" cy="313.2" r="6" fill="#2aa198"/>
  <text x="876.3" y="299" text-anchor="middle" font-size="14" font-weight="600" fill="#2aa198">Mythos (preview)</text>

  <!-- legend -->
  <rect x="168" y="120" width="300" height="228" rx="8" fill="#215862" fill-opacity="0.62" stroke="#586e75" stroke-width="1" stroke-opacity="0.5"/>
  <circle cx="197" cy="146" r="5" fill="#93a1a1"/>
  <text x="220" y="151" font-size="15" fill="#eee8d5">OpenAI</text>
  <circle cx="197" cy="172" r="5" fill="#2aa198"/>
  <text x="220" y="177" font-size="15" fill="#eee8d5">Anthropic</text>
  <circle cx="197" cy="198" r="5" fill="#268bd2"/>
  <text x="220" y="203" font-size="15" fill="#eee8d5">Google</text>
  <line x1="182" y1="224" x2="212" y2="224" stroke="#2aa198" stroke-width="2.5" stroke-dasharray="9,6" opacity="0.9"/>
  <text x="220" y="229" font-size="15" fill="#eee8d5">Fitted trend</text>
  <line x1="182" y1="250" x2="212" y2="250" stroke="#6c71c4" stroke-width="2.5" opacity="0.85"/>
  <text x="220" y="255" font-size="15" fill="#eee8d5">Accelerating (illustrative)</text>
  <circle cx="197" cy="276" r="5" fill="#b58900"/>
  <text x="220" y="281" font-size="15" fill="#eee8d5">AI 2027 milestones, approx.</text>
  <line x1="182" y1="302" x2="212" y2="302" stroke="#268bd2" stroke-width="2.5" stroke-dasharray="6,4" opacity="0.65"/>
  <text x="220" y="307" font-size="14" fill="#93a1a1">Slower, logarithmic</text>
  <line x1="182" y1="328" x2="212" y2="328" stroke="#eee8d5" stroke-width="2.5" stroke-dasharray="2,3" opacity="0.65"/>
  <text x="220" y="333" font-size="14" fill="#93a1a1">Fits and starts, then a wall</text>

  <!-- AI 2027 milestone definitions -- two columns so each agent is clearly its own line -->
  <rect x="150" y="655" width="1100" height="130" rx="8" fill="#215862" fill-opacity="0.5" stroke="#586e75" stroke-width="1" stroke-opacity="0.5"/>
  <text x="170" y="680" font-size="16" font-weight="600" fill="#b58900">AI 2027's Agent-0 through Agent-4 (per ai-2027.com):</text>
  <text x="170" y="708" font-size="15" fill="#eee8d5">Agent-0 (~late 2025): first heavily AI-assisted in-house model</text>
  <text x="170" y="732" font-size="15" fill="#eee8d5">Agent-1 (~early 2026): near top-human research engineer</text>
  <text x="170" y="756" font-size="15" fill="#eee8d5">Agent-2 (Jan 2027): near-best-human at autonomous cyber-offense</text>
  <text x="720" y="708" font-size="15" fill="#eee8d5">Agent-3 (Mar 2027): fast, cheap superhuman coder</text>
  <text x="720" y="732" font-size="15" fill="#eee8d5">Agent-4 (Sep 2027): better at AI research than any human</text>

  <text x="650" y="805" text-anchor="middle" font-size="14" fill="#586e75">Log scale &mdash; METR Time Horizon 1.1 (Jan 2026, live data); AI 2027 milestones are illustrative, ai-2027.com (not a published data table)</text>
</svg>
